<svg xmlns="http://www.w3.org/2000/svg" xmlns:xlink="http://www.w3.org/1999/xlink" width="500" zoomAndPan="magnify" viewBox="0 0 375 374.999991" height="500" preserveAspectRatio="xMidYMid meet" version="1.0"><defs><clipPath id="id1"><path d="M 164.585938 161.132812 L 210.3125 161.132812 L 210.3125 213.632812 L 164.585938 213.632812 Z M 164.585938 161.132812 " clip-rule="nonzero"/></clipPath></defs><rect x="-37.5" width="450" fill="rgb(100%, 100%, 100%)" y="-37.499999" height="449.999989" fill-opacity="1"/><rect x="-37.5" width="450" fill="rgb(100%, 100%, 100%)" y="-37.499999" height="449.999989" fill-opacity="1"/><rect x="-37.5" width="450" fill="rgb(100%, 100%, 100%)" y="-37.499999" height="449.999989" fill-opacity="1"/><path fill="rgb(100%, 56.858826%, 30.198669%)" d="M 208.609375 174.566406 L 187.996094 162.683594 L 187.4375 162.363281 L 186.878906 162.683594 L 167.8125 173.671875 L 166.261719 174.566406 L 165.703125 174.886719 L 165.703125 184.917969 L 167.550781 183.308594 C 168.542969 182.449219 169.8125 181.972656 171.125 181.972656 C 174.078125 181.972656 176.523438 184.371094 176.574219 187.316406 L 176.574219 187.332031 L 176.578125 187.34375 C 176.578125 190.332031 179.007812 192.761719 182 192.761719 C 184.992188 192.761719 187.421875 190.332031 187.421875 187.347656 C 187.421875 186.253906 187.746094 185.203125 188.359375 184.300781 C 189.378906 182.800781 191.066406 181.90625 192.875 181.90625 C 195.878906 181.90625 198.324219 184.347656 198.324219 187.347656 C 198.324219 190.332031 200.753906 192.761719 203.746094 192.761719 C 206.738281 192.761719 209.171875 190.332031 209.171875 187.347656 L 209.171875 174.886719 Z M 208.609375 174.566406 " fill-opacity="1" fill-rule="nonzero"/><path fill="rgb(0%, 76.078796%, 79.60968%)" d="M 171.125 182.738281 C 173.710938 182.738281 175.8125 184.835938 175.8125 187.414062 C 175.8125 187.425781 175.8125 187.4375 175.8125 187.453125 C 175.839844 189.078125 176.496094 190.605469 177.660156 191.75 C 178.828125 192.894531 180.367188 193.523438 182 193.523438 C 183.492188 193.523438 184.933594 192.984375 186.058594 192.007812 L 186.683594 191.464844 L 186.683594 211.179688 L 166.441406 199.515625 L 166.441406 187.414062 C 166.441406 184.835938 168.542969 182.738281 171.125 182.738281 Z M 171.125 182.738281 " fill-opacity="1" fill-rule="nonzero"/><path fill="rgb(0%, 29.019165%, 67.83905%)" d="M 192.871094 182.671875 C 195.453125 182.671875 197.554688 184.769531 197.554688 187.347656 C 197.554688 190.753906 200.332031 193.527344 203.746094 193.527344 C 205.238281 193.527344 206.679688 192.988281 207.804688 192.007812 L 208.429688 191.464844 L 208.429688 199.515625 L 188.191406 211.179688 L 188.191406 187.347656 C 188.191406 184.769531 190.289062 182.671875 192.871094 182.671875 Z M 192.871094 182.671875 " fill-opacity="1" fill-rule="nonzero"/><g clip-path="url(#id1)"><path fill="rgb(0%, 0%, 0%)" d="M 186.871094 161.367188 L 165.125 173.902344 C 164.847656 174.0625 164.652344 174.332031 164.585938 174.636719 C 164.570312 174.714844 164.5625 174.796875 164.5625 174.878906 L 164.5625 199.949219 C 164.5625 200.351562 164.777344 200.722656 165.125 200.925781 L 186.871094 213.460938 C 186.875 213.460938 186.878906 213.464844 186.886719 213.464844 C 186.894531 213.472656 186.90625 213.476562 186.914062 213.484375 C 186.933594 213.492188 186.957031 213.503906 186.976562 213.511719 C 186.984375 213.515625 186.992188 213.519531 187.003906 213.523438 C 187.03125 213.535156 187.058594 213.546875 187.085938 213.554688 C 187.097656 213.558594 187.109375 213.5625 187.121094 213.566406 C 187.144531 213.570312 187.167969 213.578125 187.191406 213.582031 C 187.199219 213.585938 187.207031 213.585938 187.214844 213.589844 C 187.246094 213.59375 187.277344 213.597656 187.308594 213.601562 C 187.316406 213.601562 187.324219 213.605469 187.335938 213.605469 C 187.367188 213.609375 187.402344 213.609375 187.4375 213.609375 C 187.46875 213.609375 187.503906 213.609375 187.535156 213.605469 C 187.546875 213.601562 187.554688 213.601562 187.5625 213.601562 C 187.59375 213.597656 187.625 213.59375 187.65625 213.589844 C 187.664062 213.585938 187.671875 213.582031 187.679688 213.582031 C 187.703125 213.578125 187.726562 213.570312 187.75 213.566406 C 187.761719 213.5625 187.773438 213.558594 187.785156 213.554688 C 187.8125 213.546875 187.839844 213.535156 187.867188 213.523438 C 187.878906 213.519531 187.886719 213.515625 187.894531 213.511719 C 187.914062 213.503906 187.9375 213.492188 187.957031 213.484375 C 187.964844 213.476562 187.976562 213.472656 187.984375 213.464844 C 187.988281 213.464844 187.996094 213.460938 188 213.460938 L 209.746094 200.925781 C 210.097656 200.722656 210.3125 200.351562 210.3125 199.949219 L 210.3125 174.878906 C 210.3125 174.476562 210.097656 174.105469 209.746094 173.90625 L 188 161.367188 C 187.652344 161.167969 187.222656 161.167969 186.871094 161.367188 Z M 166.820312 199.296875 L 166.820312 187.414062 C 166.820312 185.042969 168.75 183.113281 171.125 183.113281 C 173.5 183.113281 175.433594 185.042969 175.433594 187.414062 C 175.433594 187.429688 175.433594 187.445312 175.433594 187.460938 C 175.496094 191.023438 178.417969 193.902344 182 193.902344 C 183.644531 193.902344 185.152344 193.292969 186.304688 192.289062 L 186.304688 210.527344 Z M 208.054688 192.289062 L 208.054688 199.296875 L 188.566406 210.527344 L 188.566406 187.347656 C 188.566406 184.976562 190.496094 183.046875 192.871094 183.046875 C 195.246094 183.046875 197.179688 184.976562 197.179688 187.347656 C 197.179688 190.960938 200.125 193.902344 203.746094 193.902344 C 205.390625 193.902344 206.898438 193.292969 208.054688 192.289062 Z M 208.054688 175.53125 L 208.054688 187.347656 C 208.054688 189.71875 206.121094 191.648438 203.746094 191.648438 C 201.371094 191.648438 199.441406 189.71875 199.441406 187.347656 C 199.441406 183.734375 196.492188 180.792969 192.875 180.792969 C 190.613281 180.792969 188.621094 181.9375 187.4375 183.675781 C 186.722656 184.722656 186.308594 185.988281 186.308594 187.347656 C 186.308594 189.71875 184.375 191.648438 182 191.648438 C 179.625 191.648438 177.691406 189.71875 177.691406 187.347656 C 177.691406 187.332031 177.691406 187.316406 177.691406 187.300781 C 177.628906 183.738281 174.707031 180.859375 171.125 180.859375 C 169.480469 180.859375 167.972656 181.46875 166.820312 182.472656 L 166.820312 175.53125 L 168.371094 174.636719 L 187.4375 163.648438 Z M 208.054688 175.53125 " fill-opacity="1" fill-rule="nonzero"/></g></svg>