<svg xmlns="http://www.w3.org/2000/svg" xmlns:xlink="http://www.w3.org/1999/xlink" width="500" zoomAndPan="magnify" viewBox="0 0 375 374.999991" height="500" preserveAspectRatio="xMidYMid meet" version="1.0"><defs><clipPath id="id1"><path d="M 86.359375 71.125 L 288.648438 71.125 L 288.648438 303.625 L 86.359375 303.625 Z M 86.359375 71.125 " clip-rule="nonzero"/></clipPath></defs><path fill="rgb(15.689087%, 20.388794%, 39.99939%)" d="M 281.125 130.550781 L 189.871094 77.871094 L 187.402344 76.445312 L 184.933594 77.871094 L 100.535156 126.589844 L 93.675781 130.550781 L 91.207031 131.976562 L 91.207031 176.449219 L 99.390625 169.316406 C 103.78125 165.496094 109.402344 163.386719 115.210938 163.386719 C 128.28125 163.386719 139.105469 174.015625 139.328125 187.082031 L 139.328125 187.144531 L 139.332031 187.207031 C 139.332031 200.449219 150.101562 211.214844 163.339844 211.214844 C 176.578125 211.214844 187.34375 200.449219 187.34375 187.210938 C 187.34375 182.375 188.78125 177.703125 191.492188 173.707031 C 196 167.058594 203.472656 163.09375 211.464844 163.09375 C 224.765625 163.09375 235.585938 173.914062 235.585938 187.210938 C 235.585938 200.449219 246.355469 211.214844 259.59375 211.214844 C 272.832031 211.214844 283.597656 200.449219 283.597656 187.210938 L 283.597656 131.980469 Z M 281.125 130.550781 " fill-opacity="1" fill-rule="nonzero"/><path fill="rgb(11.759949%, 72.158813%, 81.959534%)" d="M 115.210938 166.78125 C 126.644531 166.78125 135.941406 176.082031 135.941406 187.511719 C 135.941406 187.5625 135.941406 187.613281 135.949219 187.691406 C 136.070312 194.894531 138.980469 201.660156 144.136719 206.730469 C 149.300781 211.808594 156.117188 214.605469 163.339844 214.605469 C 169.941406 214.605469 176.324219 212.210938 181.308594 207.871094 L 184.070312 205.46875 L 184.070312 292.878906 L 94.480469 241.15625 L 94.480469 187.511719 C 94.480469 176.082031 103.78125 166.78125 115.210938 166.78125 Z M 115.210938 166.78125 " fill-opacity="1" fill-rule="nonzero"/><path fill="rgb(23.529053%, 29.798889%, 60.778809%)" d="M 211.460938 166.484375 C 222.890625 166.484375 232.191406 175.785156 232.191406 187.214844 C 232.191406 202.320312 244.480469 214.609375 259.589844 214.609375 C 266.191406 214.609375 272.574219 212.21875 277.558594 207.875 L 280.320312 205.472656 L 280.320312 241.160156 L 190.734375 292.878906 L 190.734375 187.214844 C 190.734375 175.785156 200.03125 166.484375 211.460938 166.484375 Z M 211.460938 166.484375 " fill-opacity="1" fill-rule="nonzero"/><g clip-path="url(#id1)"><path fill="rgb(4.708862%, 5.099487%, 10.5896%)" d="M 184.898438 72.046875 L 88.644531 127.613281 C 87.414062 128.324219 86.5625 129.511719 86.265625 130.871094 C 86.191406 131.21875 86.148438 131.582031 86.148438 131.941406 L 86.148438 243.082031 C 86.148438 244.867188 87.101562 246.515625 88.644531 247.410156 L 184.898438 302.976562 C 184.917969 302.988281 184.9375 302.996094 184.960938 303.011719 C 185.003906 303.035156 185.050781 303.058594 185.09375 303.082031 C 185.179688 303.128906 185.269531 303.171875 185.363281 303.210938 C 185.40625 303.230469 185.441406 303.25 185.484375 303.269531 C 185.605469 303.320312 185.730469 303.363281 185.851562 303.402344 C 185.902344 303.417969 185.949219 303.429688 186 303.445312 C 186.105469 303.472656 186.207031 303.503906 186.3125 303.527344 C 186.347656 303.535156 186.382812 303.542969 186.421875 303.550781 C 186.558594 303.578125 186.695312 303.597656 186.835938 303.613281 C 186.875 303.617188 186.910156 303.621094 186.949219 303.621094 C 187.097656 303.636719 187.25 303.644531 187.398438 303.644531 C 187.546875 303.644531 187.699219 303.636719 187.84375 303.621094 C 187.882812 303.617188 187.921875 303.617188 187.960938 303.613281 C 188.097656 303.597656 188.238281 303.574219 188.375 303.550781 C 188.414062 303.539062 188.445312 303.53125 188.484375 303.527344 C 188.589844 303.503906 188.6875 303.476562 188.792969 303.445312 C 188.84375 303.429688 188.894531 303.417969 188.941406 303.402344 C 189.066406 303.363281 189.191406 303.316406 189.308594 303.269531 C 189.351562 303.25 189.390625 303.230469 189.433594 303.210938 C 189.523438 303.171875 189.613281 303.128906 189.699219 303.082031 C 189.746094 303.058594 189.789062 303.035156 189.832031 303.011719 C 189.851562 303 189.875 302.992188 189.894531 302.976562 L 286.15625 247.410156 C 287.699219 246.515625 288.652344 244.867188 288.652344 243.082031 L 288.652344 131.949219 C 288.652344 130.160156 287.699219 128.511719 286.15625 127.621094 L 189.898438 72.046875 C 188.351562 71.15625 186.449219 71.15625 184.898438 72.046875 Z M 96.144531 240.195312 L 96.144531 187.511719 C 96.144531 177 104.695312 168.449219 115.207031 168.449219 C 125.71875 168.449219 134.269531 177 134.269531 187.511719 C 134.269531 187.582031 134.269531 187.65625 134.273438 187.722656 C 134.546875 203.511719 147.480469 216.273438 163.332031 216.273438 C 170.621094 216.273438 177.292969 213.574219 182.398438 209.128906 L 182.398438 289.988281 Z M 278.65625 209.128906 L 278.65625 240.195312 L 192.398438 289.988281 L 192.398438 187.214844 C 192.398438 176.707031 200.949219 168.15625 211.460938 168.15625 C 221.972656 168.15625 230.523438 176.707031 230.523438 187.214844 C 230.523438 203.242188 243.5625 216.277344 259.589844 216.277344 C 266.875 216.273438 273.546875 213.574219 278.65625 209.128906 Z M 278.65625 134.832031 L 278.65625 187.214844 C 278.65625 197.726562 270.105469 206.277344 259.59375 206.277344 C 249.082031 206.277344 240.53125 197.726562 240.53125 187.214844 C 240.53125 171.191406 227.492188 158.152344 211.464844 158.152344 C 201.46875 158.152344 192.636719 163.230469 187.402344 170.9375 C 184.246094 175.585938 182.402344 181.191406 182.402344 187.214844 C 182.402344 197.726562 173.851562 206.277344 163.339844 206.277344 C 152.828125 206.277344 144.277344 197.726562 144.277344 187.214844 C 144.277344 187.144531 144.277344 187.074219 144.269531 187.007812 C 144 171.214844 131.066406 158.453125 115.210938 158.453125 C 107.921875 158.453125 101.253906 161.152344 96.148438 165.601562 L 96.148438 134.832031 L 103.007812 130.871094 L 187.398438 82.144531 Z M 278.65625 134.832031 " fill-opacity="1" fill-rule="nonzero"/></g></svg>